# Blender 4.0.1
# www.blender.org
o O-
v 0.000000 -8.000000 0.000000
v 5.788800 -3.577720 4.205760
v -2.211080 -3.577720 6.805120
v -7.155400 -3.577720 0.000000
v -2.211080 -3.577720 -6.805120
v 5.788800 -3.577720 -4.205760
v 2.211080 3.577720 6.805120
v -5.788800 3.577720 4.205760
v -5.788800 3.577720 -4.205760
v 2.211080 3.577720 -6.805120
v 7.155400 3.577720 0.000000
v 0.000000 8.000000 0.000000
v -0.000000 -7.500000 0.000000
v 0.000000 -8.500000 0.000000
v 5.426996 -3.354113 3.942895
v 6.150603 -3.801327 4.468626
v -2.072886 -3.354114 6.379793
v -2.349274 -3.801326 7.230447
v -6.708186 -3.354114 0.000000
v -7.602614 -3.801326 0.000000
v -2.072886 -3.354114 -6.379793
v -2.349274 -3.801326 -7.230447
v 5.426996 -3.354113 -3.942895
v 6.150603 -3.801327 -4.468626
v 2.072886 3.354114 6.379793
v 2.349274 3.801326 7.230447
v -5.426996 3.354113 3.942895
v -6.150603 3.801327 4.468626
v -5.426996 3.354113 -3.942895
v -6.150603 3.801327 -4.468626
v 2.072886 3.354114 -6.379793
v 2.349274 3.801326 -7.230447
v 6.708186 3.354114 0.000000
v 7.602614 3.801326 0.000000
v 0.000000 7.500000 0.000000
v -0.000000 8.500000 -0.000000
v 0.245566 -7.392932 0.755759
v 4.842381 -3.881253 4.095501
v -1.510226 -3.881253 6.159622
v 5.391473 -3.881252 3.339741
v 0.794661 -7.392929 0.000000
v 5.391473 -3.881252 -3.339741
v -0.642886 -7.392936 0.467085
v -2.398679 -3.881253 5.870955
v -6.324909 -3.881253 0.467085
v -0.642886 -7.392936 -0.467085
v -6.324909 -3.881253 -0.467085
v -2.398679 -3.881253 -5.870955
v 0.245566 -7.392932 -0.755759
v -1.510226 -3.881253 -6.159622
v 4.842381 -3.881253 -4.095501
v 5.882598 -3.086597 3.339746
v 5.882598 -3.086597 -3.339746
v 6.967800 2.595455 0.000000
v -1.358471 -3.086596 6.626708
v 4.994145 -3.086596 4.562584
v 2.153118 2.595460 6.626708
v -6.722240 -3.086596 0.755749
v -2.796005 -3.086596 6.159626
v -5.637036 2.595467 4.095500
v -2.796005 -3.086596 -6.159626
v -6.722240 -3.086596 -0.755749
v -5.637036 2.595467 -4.095500
v 4.994145 -3.086596 -4.562584
v -1.358471 -3.086596 -6.626708
v 2.153118 2.595460 -6.626708
v 5.637036 -2.595467 4.095500
v 6.722240 3.086596 0.755749
v 2.796005 3.086596 6.159626
v -2.153118 -2.595460 6.626708
v 1.358471 3.086596 6.626708
v -4.994145 3.086596 4.562584
v -6.967800 -2.595455 0.000000
v -5.882598 3.086597 3.339746
v -5.882598 3.086597 -3.339746
v -2.153118 -2.595460 -6.626708
v -4.994145 3.086596 -4.562584
v 1.358471 3.086596 -6.626708
v 5.637036 -2.595467 -4.095500
v 2.796005 3.086596 -6.159626
v 6.722240 3.086596 -0.755749
v 2.398679 3.881253 5.870955
v 6.324909 3.881253 0.467085
v 0.642886 7.392936 0.467085
v -4.842381 3.881253 4.095501
v 1.510226 3.881253 6.159622
v -0.245566 7.392932 0.755759
v -5.391473 3.881252 -3.339741
v -5.391473 3.881252 3.339741
v -0.794661 7.392929 0.000000
v 1.510226 3.881253 -6.159622
v -4.842381 3.881253 -4.095501
v -0.245566 7.392932 -0.755759
v 6.324909 3.881253 -0.467085
v 2.398679 3.881253 -5.870955
v 0.642886 7.392936 -0.467085
v -0.000000 -7.875000 0.000000
v 5.698349 -3.521818 4.140044
v -2.176532 -3.521818 6.698788
v -7.043596 -3.521818 0.000000
v -2.176532 -3.521818 -6.698788
v 5.698349 -3.521818 -4.140044
v 2.176532 3.521818 6.698788
v -5.698349 3.521818 4.140044
v -5.698349 3.521818 -4.140044
v 2.176532 3.521818 -6.698788
v 7.043596 3.521818 0.000000
v 0.000000 7.875000 0.000000
v -0.000000 -7.625000 0.000000
v 0.000000 -8.375000 -0.000000
v 5.517447 -3.410015 4.008611
v 6.060153 -3.745425 4.402909
v -2.107435 -3.410015 6.486125
v -2.314725 -3.745424 7.124115
v -6.819989 -3.410016 0.000000
v -7.490810 -3.745424 0.000000
v -2.107435 -3.410015 -6.486125
v -2.314725 -3.745424 -7.124115
v 5.517447 -3.410015 -4.008611
v 6.060153 -3.745425 -4.402909
v 2.107435 3.410015 6.486125
v 2.314726 3.745424 7.124115
v -5.517447 3.410015 4.008611
v -6.060153 3.745425 4.402909
v -5.517447 3.410015 -4.008611
v -6.060153 3.745425 -4.402909
v 2.107435 3.410015 -6.486125
v 2.314725 3.745424 -7.124115
v 6.819989 3.410016 0.000000
v 7.490810 3.745424 -0.000000
v 0.000000 7.625000 0.000000
v -0.000000 8.375000 -0.000000
v 0.208666 -7.429900 0.642195
v 4.945336 -3.811380 4.083547
v -1.600545 -3.811380 6.210467
v 5.411920 -3.811379 3.441351
v 0.675252 -7.429896 0.000000
v 5.411920 -3.811379 -3.441351
v -0.546282 -7.429903 0.396898
v -2.355495 -3.811380 5.965178
v -6.401176 -3.811380 0.396898
v -0.546282 -7.429903 -0.396898
v -6.401176 -3.811380 -0.396898
v -2.355495 -3.811380 -5.965178
v 0.208666 -7.429900 -0.642195
v -1.600545 -3.811380 -6.210467
v 4.945336 -3.811380 -4.083547
v 5.829246 -3.136133 3.441356
v 5.829246 -3.136133 -3.441356
v 6.947463 2.718790 -0.000000
v -1.471595 -3.136133 6.607367
v 5.074296 -3.136132 4.480444
v 2.146832 2.718795 6.607367
v -6.738803 -3.136132 0.642185
v -2.693117 -3.136132 6.210471
v -5.620584 2.718801 4.083546
v -2.693117 -3.136132 -6.210471
v -6.738803 -3.136132 -0.642185
v -5.620584 2.718801 -4.083546
v 5.074296 -3.136132 -4.480444
v -1.471595 -3.136133 -6.607367
v 2.146832 2.718795 -6.607367
v 5.620584 -2.718801 4.083546
v 6.738803 3.136132 0.642185
v 2.693117 3.136132 6.210471
v -2.146832 -2.718795 6.607367
v 1.471595 3.136133 6.607367
v -5.074296 3.136132 4.480444
v -6.947463 -2.718790 0.000000
v -5.829246 3.136133 3.441356
v -5.829246 3.136133 -3.441356
v -2.146832 -2.718795 -6.607367
v -5.074296 3.136132 -4.480444
v 1.471595 3.136133 -6.607367
v 5.620584 -2.718801 -4.083546
v 2.693117 3.136132 -6.210471
v 6.738803 3.136132 -0.642185
v 2.355495 3.811380 5.965178
v 6.401176 3.811380 0.396898
v 0.546282 7.429903 0.396898
v -4.945336 3.811380 4.083547
v 1.600545 3.811380 6.210467
v -0.208666 7.429899 0.642195
v -5.411920 3.811379 -3.441351
v -5.411920 3.811379 3.441351
v -0.675252 7.429896 0.000000
v 1.600545 3.811380 -6.210467
v -4.945336 3.811380 -4.083547
v -0.208666 7.429900 -0.642195
v 6.401176 3.811380 -0.396898
v 2.355495 3.811380 -5.965178
v 0.546282 7.429903 -0.396898
vn 0.1876 -0.7947 0.5774
vn 0.6071 -0.7947 -0.0000
vn -0.4911 -0.7947 0.3568
vn -0.4911 -0.7947 -0.3568
vn 0.1876 -0.7947 -0.5774
vn 0.9822 -0.1876 -0.0000
vn 0.3035 -0.1876 0.9342
vn -0.7946 -0.1876 0.5774
vn -0.7946 -0.1876 -0.5774
vn 0.3035 -0.1876 -0.9342
vn 0.7946 0.1876 0.5774
vn -0.3035 0.1876 0.9342
vn -0.9822 0.1876 -0.0000
vn -0.3035 0.1876 -0.9342
vn 0.7946 0.1876 -0.5774
vn 0.4911 0.7947 0.3568
vn -0.1876 0.7947 0.5774
vn -0.6071 0.7947 -0.0000
vn -0.1876 0.7947 -0.5774
vn 0.4911 0.7947 -0.3568
vn -0.6507 0.7520 0.1049
vn -0.2046 -0.5205 0.8290
vn -0.3083 0.0672 -0.9489
vn 0.0324 -0.9945 0.0996
vn 0.5881 0.7520 -0.2976
vn 0.6528 -0.5205 0.5504
vn -0.1013 0.7520 -0.6513
vn 0.7252 -0.5205 -0.4508
vn -0.1013 0.7520 0.6513
vn 0.7252 -0.5205 0.4508
vn -0.9977 0.0672 -0.0000
vn 0.1047 -0.9945 -0.0000
vn -0.3008 0.7520 -0.5865
vn -0.8516 -0.5205 0.0616
vn 0.8072 0.0672 -0.5865
vn -0.0847 -0.9945 0.0615
vn 0.4648 0.7520 0.4673
vn -0.3217 -0.5205 0.7909
vn 0.4648 0.7520 -0.4673
vn -0.3217 -0.5205 -0.7909
vn 0.8072 0.0672 0.5865
vn -0.0847 -0.9945 -0.0615
vn -0.3008 0.7520 0.5865
vn -0.8516 -0.5205 -0.0616
vn 0.5881 0.7520 0.2976
vn 0.6528 -0.5205 -0.5504
vn -0.3083 0.0672 0.9489
vn 0.0324 -0.9945 -0.0996
vn -0.6507 0.7520 -0.1049
vn -0.2046 -0.5205 -0.8290
vn -0.5063 0.8623 -0.0000
vn 0.9363 0.3511 -0.0000
vn -0.7180 -0.2457 0.6513
vn 0.7899 -0.4158 0.4508
vn -0.7180 -0.2457 -0.6513
vn 0.7899 -0.4158 -0.4508
vn -0.1565 0.8623 -0.4816
vn 0.2893 0.3511 0.8905
vn -0.8413 -0.2457 -0.4816
vn -0.1846 -0.4158 0.8905
vn 0.3976 -0.2457 -0.8841
vn 0.6728 -0.4158 0.6119
vn 0.4096 0.8623 -0.2976
vn -0.7575 0.3511 0.5504
vn 0.1980 -0.2457 -0.9489
vn -0.9040 -0.4158 0.0996
vn 0.9637 -0.2457 0.1049
vn -0.3740 -0.4158 0.8290
vn 0.4096 0.8623 0.2976
vn -0.7575 0.3511 -0.5504
vn 0.9637 -0.2457 -0.1049
vn -0.3740 -0.4158 -0.8290
vn 0.1980 -0.2457 0.9489
vn -0.9040 -0.4158 -0.0996
vn -0.1565 0.8623 0.4816
vn 0.2893 0.3511 -0.8905
vn 0.3976 -0.2457 0.8841
vn 0.6728 -0.4158 -0.6119
vn -0.8413 -0.2457 0.4816
vn -0.1846 -0.4158 -0.8905
vn -0.9637 0.2457 0.1049
vn 0.3740 0.4158 0.8290
vn -0.4096 -0.8623 -0.2976
vn 0.7575 -0.3511 0.5504
vn -0.1980 0.2457 -0.9489
vn 0.9040 0.4158 0.0996
vn -0.3976 0.2457 -0.8841
vn -0.6728 0.4158 0.6119
vn 0.1565 -0.8623 -0.4816
vn -0.2893 -0.3511 0.8905
vn 0.8413 0.2457 -0.4816
vn 0.1846 0.4158 0.8905
vn 0.7180 0.2457 -0.6513
vn -0.7899 0.4158 -0.4508
vn 0.5063 -0.8623 -0.0000
vn -0.9363 -0.3511 -0.0000
vn 0.7180 0.2457 0.6513
vn -0.7899 0.4158 0.4508
vn 0.8413 0.2457 0.4816
vn 0.1846 0.4158 -0.8905
vn 0.1565 -0.8623 0.4816
vn -0.2893 -0.3511 -0.8905
vn -0.3976 0.2457 0.8841
vn -0.6728 0.4158 -0.6119
vn -0.1980 0.2457 0.9489
vn 0.9040 0.4158 -0.0996
vn -0.4096 -0.8623 0.2976
vn 0.7575 -0.3511 -0.5504
vn -0.9637 0.2457 -0.1049
vn 0.3740 0.4158 -0.8290
vn -0.8072 -0.0672 -0.5865
vn 0.0847 0.9945 0.0615
vn -0.4648 -0.7520 0.4673
vn 0.3217 0.5205 0.7909
vn 0.3008 -0.7520 -0.5865
vn 0.8516 0.5205 0.0616
vn 0.3083 -0.0672 -0.9489
vn -0.0324 0.9945 0.0996
vn -0.5881 -0.7520 -0.2976
vn -0.6528 0.5205 0.5504
vn 0.6507 -0.7520 0.1049
vn 0.2046 0.5205 0.8290
vn 0.9977 -0.0672 -0.0000
vn -0.1047 0.9945 -0.0000
vn 0.1013 -0.7520 -0.6513
vn -0.7252 0.5205 -0.4508
vn 0.1013 -0.7520 0.6513
vn -0.7252 0.5205 0.4508
vn 0.3083 -0.0672 0.9489
vn -0.0324 0.9945 -0.0996
vn 0.6507 -0.7520 -0.1049
vn 0.2046 0.5205 -0.8290
vn -0.5881 -0.7520 0.2976
vn -0.6528 0.5205 -0.5504
vn -0.8072 -0.0672 0.5865
vn 0.0847 0.9945 -0.0615
vn 0.3008 -0.7520 0.5865
vn 0.8516 0.5205 -0.0616
vn -0.4648 -0.7520 -0.4673
vn 0.3217 0.5205 -0.7909
vn 0.5785 -0.8135 0.0592
vn 0.2071 0.5182 -0.8298
vn 0.2989 -0.2543 0.9198
vn -0.0313 0.9949 -0.0963
vn -0.4332 -0.8135 0.3879
vn -0.6553 0.5182 -0.5496
vn 0.2351 -0.8135 0.5319
vn -0.7252 0.5182 0.4534
vn 0.2351 -0.8135 -0.5319
vn -0.7252 0.5182 -0.4534
vn 0.9671 -0.2543 -0.0000
vn -0.1012 0.9949 -0.0000
vn 0.1225 -0.8135 0.5685
vn 0.8532 0.5182 -0.0595
vn -0.7824 -0.2543 0.5685
vn 0.0819 0.9949 -0.0595
vn -0.5028 -0.8135 -0.2921
vn 0.3202 0.5182 -0.7931
vn -0.5028 -0.8135 0.2921
vn 0.3202 0.5182 0.7931
vn -0.7824 -0.2543 -0.5685
vn 0.0819 0.9949 0.0595
vn 0.1225 -0.8135 -0.5685
vn 0.8532 0.5182 0.0595
vn -0.4332 -0.8135 -0.3879
vn -0.6553 0.5182 0.5496
vn 0.2989 -0.2543 -0.9198
vn -0.0313 0.9949 0.0963
vn 0.5785 -0.8135 -0.0592
vn 0.2071 0.5182 0.8298
vn 0.6599 -0.7513 -0.0000
vn -0.9351 -0.3544 -0.0000
vn 0.8328 0.1536 -0.5319
vn -0.7878 0.4169 -0.4534
vn 0.8328 0.1536 0.5319
vn -0.7878 0.4169 0.4534
vn 0.2039 -0.7513 0.6276
vn -0.2890 -0.3544 -0.8893
vn 0.7632 0.1536 0.6276
vn 0.1877 0.4169 -0.8893
vn -0.2485 0.1536 0.9564
vn -0.6746 0.4169 -0.6091
vn -0.5339 -0.7513 0.3879
vn 0.7565 -0.3544 -0.5496
vn -0.3611 0.1536 0.9198
vn 0.9038 0.4169 -0.0963
vn -0.9864 0.1536 0.0592
vn 0.3708 0.4169 -0.8298
vn -0.5339 -0.7513 -0.3879
vn 0.7565 -0.3544 0.5496
vn -0.9864 0.1536 -0.0592
vn 0.3708 0.4169 0.8298
vn -0.3611 0.1536 -0.9198
vn 0.9038 0.4169 0.0963
vn 0.2039 -0.7513 -0.6276
vn -0.2890 -0.3544 0.8893
vn -0.2485 0.1536 -0.9564
vn -0.6746 0.4169 0.6091
vn 0.7632 0.1536 -0.6276
vn 0.1877 0.4169 0.8893
vn 0.9864 -0.1536 0.0592
vn -0.3708 -0.4169 -0.8298
vn 0.5339 0.7513 0.3879
vn -0.7565 0.3544 -0.5496
vn 0.3611 -0.1536 0.9198
vn -0.9038 -0.4169 -0.0963
vn 0.2485 -0.1536 0.9564
vn 0.6746 -0.4169 -0.6091
vn -0.2039 0.7513 0.6277
vn 0.2890 0.3544 -0.8893
vn -0.7632 -0.1536 0.6276
vn -0.1877 -0.4169 -0.8893
vn -0.8328 -0.1536 0.5319
vn 0.7878 -0.4169 0.4534
vn -0.6599 0.7513 -0.0000
vn 0.9351 0.3544 -0.0000
vn -0.8328 -0.1536 -0.5319
vn 0.7878 -0.4169 -0.4534
vn -0.7632 -0.1536 -0.6276
vn -0.1877 -0.4169 0.8893
vn -0.2039 0.7513 -0.6276
vn 0.2890 0.3544 0.8893
vn 0.2485 -0.1536 -0.9564
vn 0.6746 -0.4169 0.6091
vn 0.3611 -0.1536 -0.9198
vn -0.9038 -0.4169 0.0963
vn 0.5339 0.7513 -0.3879
vn -0.7565 0.3544 0.5496
vn 0.9864 -0.1536 -0.0592
vn -0.3708 -0.4169 0.8298
vn 0.7824 0.2543 0.5685
vn -0.0819 -0.9949 -0.0595
vn 0.5028 0.8135 -0.2921
vn -0.3202 -0.5182 -0.7931
vn -0.1225 0.8135 0.5685
vn -0.8532 -0.5182 -0.0595
vn -0.2989 0.2543 0.9198
vn 0.0313 -0.9949 -0.0963
vn 0.4332 0.8135 0.3879
vn 0.6553 -0.5182 -0.5496
vn -0.5785 0.8135 0.0592
vn -0.2071 -0.5182 -0.8298
vn -0.9671 0.2543 -0.0000
vn 0.1012 -0.9949 -0.0000
vn -0.2351 0.8135 0.5319
vn 0.7252 -0.5182 0.4534
vn -0.2351 0.8135 -0.5319
vn 0.7252 -0.5182 -0.4534
vn -0.2989 0.2543 -0.9198
vn 0.0313 -0.9949 0.0963
vn -0.5785 0.8135 -0.0592
vn -0.2071 -0.5182 0.8298
vn 0.4332 0.8135 -0.3879
vn 0.6553 -0.5182 0.5496
vn 0.7824 0.2543 -0.5685
vn -0.0819 -0.9949 0.0595
vn -0.1225 0.8135 -0.5685
vn -0.8532 -0.5182 0.0595
vn 0.5028 0.8135 0.2921
vn -0.3202 -0.5182 0.7931
vt 0.181819 0.000000
vt 0.272728 0.157461
vt 0.090910 0.157461
vt 0.363637 0.000000
vt 0.454546 0.157461
vt 0.909091 0.000000
vt 1.000000 0.157461
vt 0.818182 0.157461
vt 0.727273 0.000000
vt 0.636364 0.157461
vt 0.545455 0.000000
vt 0.363637 0.314921
vt 0.181819 0.314921
vt 0.909091 0.314921
vt 0.727273 0.314921
vt 0.545455 0.314921
vt 0.000000 0.314921
vt 0.272728 0.472382
vt 0.090910 0.472382
vt 0.818182 0.472382
vt 0.636364 0.472382
vt 0.454546 0.472382
s 0
f 1/1/1 2/2/1 3/3/1
f 2/2/2 1/4/2 6/5/2
f 1/6/3 3/7/3 4/8/3
f 1/9/4 4/8/4 5/10/4
f 1/11/5 5/10/5 6/5/5
f 2/2/6 6/5/6 11/12/6
f 3/3/7 2/2/7 7/13/7
f 4/8/8 3/7/8 8/14/8
f 5/10/9 4/8/9 9/15/9
f 6/5/10 5/10/10 10/16/10
f 2/2/11 11/12/11 7/13/11
f 3/3/12 7/13/12 8/17/12
f 4/8/13 8/14/13 9/15/13
f 5/10/14 9/15/14 10/16/14
f 6/5/15 10/16/15 11/12/15
f 7/13/16 11/12/16 12/18/16
f 8/17/17 7/13/17 12/19/17
f 9/15/18 8/14/18 12/20/18
f 10/16/19 9/15/19 12/21/19
f 11/12/20 10/16/20 12/22/20
f 37/1/21 38/2/21 15/2/21 13/1/21
f 38/2/22 37/1/22 14/1/22 16/2/22
f 38/2/23 39/3/23 17/3/23 15/2/23
f 39/3/24 38/2/24 16/2/24 18/3/24
f 39/3/25 37/1/25 13/1/25 17/3/25
f 37/1/26 39/3/26 18/3/26 14/1/26
f 40/2/27 41/4/27 13/4/27 15/2/27
f 41/4/28 40/2/28 16/2/28 14/4/28
f 41/4/29 42/5/29 23/5/29 13/4/29
f 42/5/30 41/4/30 14/4/30 24/5/30
f 42/5/31 40/2/31 15/2/31 23/5/31
f 40/2/32 42/5/32 24/5/32 16/2/32
f 43/6/33 44/7/33 17/7/33 13/6/33
f 44/7/34 43/6/34 14/6/34 18/7/34
f 44/7/35 45/8/35 19/8/35 17/7/35
f 45/8/36 44/7/36 18/7/36 20/8/36
f 45/8/37 43/6/37 13/6/37 19/8/37
f 43/6/38 45/8/38 20/8/38 14/6/38
f 46/9/39 47/8/39 19/8/39 13/9/39
f 47/8/40 46/9/40 14/9/40 20/8/40
f 47/8/41 48/10/41 21/10/41 19/8/41
f 48/10/42 47/8/42 20/8/42 22/10/42
f 48/10/43 46/9/43 13/9/43 21/10/43
f 46/9/44 48/10/44 22/10/44 14/9/44
f 49/11/45 50/10/45 21/10/45 13/11/45
f 50/10/46 49/11/46 14/11/46 22/10/46
f 50/10/47 51/5/47 23/5/47 21/10/47
f 51/5/48 50/10/48 22/10/48 24/5/48
f 51/5/49 49/11/49 13/11/49 23/5/49
f 49/11/50 51/5/50 24/5/50 14/11/50
f 52/2/51 53/5/51 23/5/51 15/2/51
f 53/5/52 52/2/52 16/2/52 24/5/52
f 53/5/53 54/12/53 33/12/53 23/5/53
f 54/12/54 53/5/54 24/5/54 34/12/54
f 54/12/55 52/2/55 15/2/55 33/12/55
f 52/2/56 54/12/56 34/12/56 16/2/56
f 55/3/57 56/2/57 15/2/57 17/3/57
f 56/2/58 55/3/58 18/3/58 16/2/58
f 56/2/59 57/13/59 25/13/59 15/2/59
f 57/13/60 56/2/60 16/2/60 26/13/60
f 57/13/61 55/3/61 17/3/61 25/13/61
f 55/3/62 57/13/62 26/13/62 18/3/62
f 58/8/63 59/7/63 17/7/63 19/8/63
f 59/7/64 58/8/64 20/8/64 18/7/64
f 59/7/65 60/14/65 27/14/65 17/7/65
f 60/14/66 59/7/66 18/7/66 28/14/66
f 60/14/67 58/8/67 19/8/67 27/14/67
f 58/8/68 60/14/68 28/14/68 20/8/68
f 61/10/69 62/8/69 19/8/69 21/10/69
f 62/8/70 61/10/70 22/10/70 20/8/70
f 62/8/71 63/15/71 29/15/71 19/8/71
f 63/15/72 62/8/72 20/8/72 30/15/72
f 63/15/73 61/10/73 21/10/73 29/15/73
f 61/10/74 63/15/74 30/15/74 22/10/74
f 64/5/75 65/10/75 21/10/75 23/5/75
f 65/10/76 64/5/76 24/5/76 22/10/76
f 65/10/77 66/16/77 31/16/77 21/10/77
f 66/16/78 65/10/78 22/10/78 32/16/78
f 66/16/79 64/5/79 23/5/79 31/16/79
f 64/5/80 66/16/80 32/16/80 24/5/80
f 67/2/81 68/12/81 33/12/81 15/2/81
f 68/12/82 67/2/82 16/2/82 34/12/82
f 68/12/83 69/13/83 25/13/83 33/12/83
f 69/13/84 68/12/84 34/12/84 26/13/84
f 69/13/85 67/2/85 15/2/85 25/13/85
f 67/2/86 69/13/86 26/13/86 16/2/86
f 70/3/87 71/13/87 25/13/87 17/3/87
f 71/13/88 70/3/88 18/3/88 26/13/88
f 71/13/89 72/17/89 27/17/89 25/13/89
f 72/17/90 71/13/90 26/13/90 28/17/90
f 72/17/91 70/3/91 17/3/91 27/17/91
f 70/3/92 72/17/92 28/17/92 18/3/92
f 73/8/93 74/14/93 27/14/93 19/8/93
f 74/14/94 73/8/94 20/8/94 28/14/94
f 74/14/95 75/15/95 29/15/95 27/14/95
f 75/15/96 74/14/96 28/14/96 30/15/96
f 75/15/97 73/8/97 19/8/97 29/15/97
f 73/8/98 75/15/98 30/15/98 20/8/98
f 76/10/99 77/15/99 29/15/99 21/10/99
f 77/15/100 76/10/100 22/10/100 30/15/100
f 77/15/101 78/16/101 31/16/101 29/15/101
f 78/16/102 77/15/102 30/15/102 32/16/102
f 78/16/103 76/10/103 21/10/103 31/16/103
f 76/10/104 78/16/104 32/16/104 22/10/104
f 79/5/105 80/16/105 31/16/105 23/5/105
f 80/16/106 79/5/106 24/5/106 32/16/106
f 80/16/107 81/12/107 33/12/107 31/16/107
f 81/12/108 80/16/108 32/16/108 34/12/108
f 81/12/109 79/5/109 23/5/109 33/12/109
f 79/5/110 81/12/110 34/12/110 24/5/110
f 82/13/111 83/12/111 33/12/111 25/13/111
f 83/12/112 82/13/112 26/13/112 34/12/112
f 83/12/113 84/18/113 35/18/113 33/12/113
f 84/18/114 83/12/114 34/12/114 36/18/114
f 84/18/115 82/13/115 25/13/115 35/18/115
f 82/13/116 84/18/116 36/18/116 26/13/116
f 85/17/117 86/13/117 25/13/117 27/17/117
f 86/13/118 85/17/118 28/17/118 26/13/118
f 86/13/119 87/19/119 35/19/119 25/13/119
f 87/19/120 86/13/120 26/13/120 36/19/120
f 87/19/121 85/17/121 27/17/121 35/19/121
f 85/17/122 87/19/122 36/19/122 28/17/122
f 88/15/123 89/14/123 27/14/123 29/15/123
f 89/14/124 88/15/124 30/15/124 28/14/124
f 89/14/125 90/20/125 35/20/125 27/14/125
f 90/20/126 89/14/126 28/14/126 36/20/126
f 90/20/127 88/15/127 29/15/127 35/20/127
f 88/15/128 90/20/128 36/20/128 30/15/128
f 91/16/129 92/15/129 29/15/129 31/16/129
f 92/15/130 91/16/130 32/16/130 30/15/130
f 92/15/131 93/21/131 35/21/131 29/15/131
f 93/21/132 92/15/132 30/15/132 36/21/132
f 93/21/133 91/16/133 31/16/133 35/21/133
f 91/16/134 93/21/134 36/21/134 32/16/134
f 94/12/135 95/16/135 31/16/135 33/12/135
f 95/16/136 94/12/136 34/12/136 32/16/136
f 95/16/137 96/22/137 35/22/137 31/16/137
f 96/22/138 95/16/138 32/16/138 36/22/138
f 96/22/139 94/12/139 33/12/139 35/22/139
f 94/12/140 96/22/140 36/22/140 34/12/140
f 97/1/19 99/3/19 98/2/19
f 98/2/18 102/5/18 97/4/18
f 97/6/20 100/8/20 99/7/20
f 97/9/16 101/10/16 100/8/16
f 97/11/17 102/5/17 101/10/17
f 98/2/13 107/12/13 102/5/13
f 99/3/14 103/13/14 98/2/14
f 100/8/15 104/14/15 99/7/15
f 101/10/11 105/15/11 100/8/11
f 102/5/12 106/16/12 101/10/12
f 98/2/9 103/13/9 107/12/9
f 99/3/10 104/17/10 103/13/10
f 100/8/6 105/15/6 104/14/6
f 101/10/7 106/16/7 105/15/7
f 102/5/8 107/12/8 106/16/8
f 103/13/4 108/18/4 107/12/4
f 104/17/5 108/19/5 103/13/5
f 105/15/2 108/20/2 104/14/2
f 106/16/1 108/21/1 105/15/1
f 107/12/3 108/22/3 106/16/3
f 133/1/141 109/1/141 111/2/141 134/2/141
f 134/2/142 112/2/142 110/1/142 133/1/142
f 134/2/143 111/2/143 113/3/143 135/3/143
f 135/3/144 114/3/144 112/2/144 134/2/144
f 135/3/145 113/3/145 109/1/145 133/1/145
f 133/1/146 110/1/146 114/3/146 135/3/146
f 136/2/147 111/2/147 109/4/147 137/4/147
f 137/4/148 110/4/148 112/2/148 136/2/148
f 137/4/149 109/4/149 119/5/149 138/5/149
f 138/5/150 120/5/150 110/4/150 137/4/150
f 138/5/151 119/5/151 111/2/151 136/2/151
f 136/2/152 112/2/152 120/5/152 138/5/152
f 139/6/153 109/6/153 113/7/153 140/7/153
f 140/7/154 114/7/154 110/6/154 139/6/154
f 140/7/155 113/7/155 115/8/155 141/8/155
f 141/8/156 116/8/156 114/7/156 140/7/156
f 141/8/157 115/8/157 109/6/157 139/6/157
f 139/6/158 110/6/158 116/8/158 141/8/158
f 142/9/159 109/9/159 115/8/159 143/8/159
f 143/8/160 116/8/160 110/9/160 142/9/160
f 143/8/161 115/8/161 117/10/161 144/10/161
f 144/10/162 118/10/162 116/8/162 143/8/162
f 144/10/163 117/10/163 109/9/163 142/9/163
f 142/9/164 110/9/164 118/10/164 144/10/164
f 145/11/165 109/11/165 117/10/165 146/10/165
f 146/10/166 118/10/166 110/11/166 145/11/166
f 146/10/167 117/10/167 119/5/167 147/5/167
f 147/5/168 120/5/168 118/10/168 146/10/168
f 147/5/169 119/5/169 109/11/169 145/11/169
f 145/11/170 110/11/170 120/5/170 147/5/170
f 148/2/171 111/2/171 119/5/171 149/5/171
f 149/5/172 120/5/172 112/2/172 148/2/172
f 149/5/173 119/5/173 129/12/173 150/12/173
f 150/12/174 130/12/174 120/5/174 149/5/174
f 150/12/175 129/12/175 111/2/175 148/2/175
f 148/2/176 112/2/176 130/12/176 150/12/176
f 151/3/177 113/3/177 111/2/177 152/2/177
f 152/2/178 112/2/178 114/3/178 151/3/178
f 152/2/179 111/2/179 121/13/179 153/13/179
f 153/13/180 122/13/180 112/2/180 152/2/180
f 153/13/181 121/13/181 113/3/181 151/3/181
f 151/3/182 114/3/182 122/13/182 153/13/182
f 154/8/183 115/8/183 113/7/183 155/7/183
f 155/7/184 114/7/184 116/8/184 154/8/184
f 155/7/185 113/7/185 123/14/185 156/14/185
f 156/14/186 124/14/186 114/7/186 155/7/186
f 156/14/187 123/14/187 115/8/187 154/8/187
f 154/8/188 116/8/188 124/14/188 156/14/188
f 157/10/189 117/10/189 115/8/189 158/8/189
f 158/8/190 116/8/190 118/10/190 157/10/190
f 158/8/191 115/8/191 125/15/191 159/15/191
f 159/15/192 126/15/192 116/8/192 158/8/192
f 159/15/193 125/15/193 117/10/193 157/10/193
f 157/10/194 118/10/194 126/15/194 159/15/194
f 160/5/195 119/5/195 117/10/195 161/10/195
f 161/10/196 118/10/196 120/5/196 160/5/196
f 161/10/197 117/10/197 127/16/197 162/16/197
f 162/16/198 128/16/198 118/10/198 161/10/198
f 162/16/199 127/16/199 119/5/199 160/5/199
f 160/5/200 120/5/200 128/16/200 162/16/200
f 163/2/201 111/2/201 129/12/201 164/12/201
f 164/12/202 130/12/202 112/2/202 163/2/202
f 164/12/203 129/12/203 121/13/203 165/13/203
f 165/13/204 122/13/204 130/12/204 164/12/204
f 165/13/205 121/13/205 111/2/205 163/2/205
f 163/2/206 112/2/206 122/13/206 165/13/206
f 166/3/207 113/3/207 121/13/207 167/13/207
f 167/13/208 122/13/208 114/3/208 166/3/208
f 167/13/209 121/13/209 123/17/209 168/17/209
f 168/17/210 124/17/210 122/13/210 167/13/210
f 168/17/211 123/17/211 113/3/211 166/3/211
f 166/3/212 114/3/212 124/17/212 168/17/212
f 169/8/213 115/8/213 123/14/213 170/14/213
f 170/14/214 124/14/214 116/8/214 169/8/214
f 170/14/215 123/14/215 125/15/215 171/15/215
f 171/15/216 126/15/216 124/14/216 170/14/216
f 171/15/217 125/15/217 115/8/217 169/8/217
f 169/8/218 116/8/218 126/15/218 171/15/218
f 172/10/219 117/10/219 125/15/219 173/15/219
f 173/15/220 126/15/220 118/10/220 172/10/220
f 173/15/221 125/15/221 127/16/221 174/16/221
f 174/16/222 128/16/222 126/15/222 173/15/222
f 174/16/223 127/16/223 117/10/223 172/10/223
f 172/10/224 118/10/224 128/16/224 174/16/224
f 175/5/225 119/5/225 127/16/225 176/16/225
f 176/16/226 128/16/226 120/5/226 175/5/226
f 176/16/227 127/16/227 129/12/227 177/12/227
f 177/12/228 130/12/228 128/16/228 176/16/228
f 177/12/229 129/12/229 119/5/229 175/5/229
f 175/5/230 120/5/230 130/12/230 177/12/230
f 178/13/231 121/13/231 129/12/231 179/12/231
f 179/12/232 130/12/232 122/13/232 178/13/232
f 179/12/233 129/12/233 131/18/233 180/18/233
f 180/18/234 132/18/234 130/12/234 179/12/234
f 180/18/235 131/18/235 121/13/235 178/13/235
f 178/13/236 122/13/236 132/18/236 180/18/236
f 181/17/237 123/17/237 121/13/237 182/13/237
f 182/13/238 122/13/238 124/17/238 181/17/238
f 182/13/239 121/13/239 131/19/239 183/19/239
f 183/19/240 132/19/240 122/13/240 182/13/240
f 183/19/241 131/19/241 123/17/241 181/17/241
f 181/17/242 124/17/242 132/19/242 183/19/242
f 184/15/243 125/15/243 123/14/243 185/14/243
f 185/14/244 124/14/244 126/15/244 184/15/244
f 185/14/245 123/14/245 131/20/245 186/20/245
f 186/20/246 132/20/246 124/14/246 185/14/246
f 186/20/247 131/20/247 125/15/247 184/15/247
f 184/15/248 126/15/248 132/20/248 186/20/248
f 187/16/249 127/16/249 125/15/249 188/15/249
f 188/15/250 126/15/250 128/16/250 187/16/250
f 188/15/251 125/15/251 131/21/251 189/21/251
f 189/21/252 132/21/252 126/15/252 188/15/252
f 189/21/253 131/21/253 127/16/253 187/16/253
f 187/16/254 128/16/254 132/21/254 189/21/254
f 190/12/255 129/12/255 127/16/255 191/16/255
f 191/16/256 128/16/256 130/12/256 190/12/256
f 191/16/257 127/16/257 131/22/257 192/22/257
f 192/22/258 132/22/258 128/16/258 191/16/258
f 192/22/259 131/22/259 129/12/259 190/12/259
f 190/12/260 130/12/260 132/22/260 192/22/260
